<?xml version="1.0" standalone="no"?>
<!DOCTYPE svg PUBLIC "-//W3C//DTD SVG 20010904//EN"
 "http://www.w3.org/TR/2001/REC-SVG-20010904/DTD/svg10.dtd">
<svg version="1.0" xmlns="http://www.w3.org/2000/svg"
 width="220.000000pt" height="220.000000pt" viewBox="0 0 220.000000 220.000000"
 preserveAspectRatio="xMidYMid meet">
<metadata>
Created by potrace 1.14, written by Peter Selinger 2001-2017
</metadata>
<g transform="translate(0.000000,220.000000) scale(0.100000,-0.100000)"
fill="#000000" stroke="none">
<path d="M1561 2139 c-19 -10 -54 -32 -77 -49 -35 -24 -52 -30 -96 -30 -52 0
-98 -19 -98 -41 0 -5 11 -9 25 -9 14 0 25 -4 25 -9 0 -5 -21 -9 -47 -9 -49 -1
-80 -12 -257 -97 -54 -25 -125 -52 -157 -58 -66 -12 -74 -22 -26 -33 17 -4 39
-9 47 -11 8 -2 49 -8 90 -12 41 -4 89 -15 107 -24 18 -10 38 -17 45 -17 26 0
40 -17 33 -39 -10 -32 -74 -29 -115 5 l-31 27 -6 -22 c-4 -17 -12 -22 -32 -20
-14 2 -34 -2 -44 -7 -12 -7 -38 -8 -75 -2 -72 12 -135 3 -192 -27 -89 -47
-165 -76 -224 -84 -34 -5 -83 -21 -111 -36 -33 -17 -61 -25 -82 -23 -31 4 -33
2 -33 -29 0 -81 116 -83 280 -3 8 4 19 20 25 36 9 27 32 53 47 54 4 0 3 -13
-3 -28 -5 -15 -7 -39 -5 -52 2 -14 5 -31 5 -38 1 -7 21 -34 45 -60 51 -54 48
-60 -35 -82 -50 -13 -79 -35 -79 -60 0 -9 23 -36 50 -60 46 -40 110 -122 110
-142 0 -4 -7 -8 -15 -8 -16 0 -38 -34 -28 -44 3 -3 -68 -6 -158 -6 l-164 0 0
-455 c-1 -250 1 -455 5 -455 8 -1 1511 -1 1538 -1 l22 1 0 455 0 455 -406 0
-407 0 39 40 c33 33 41 37 52 26 12 -12 22 -12 65 0 29 8 63 14 77 14 38 0 70
26 64 53 -2 12 1 56 7 97 10 70 14 77 55 113 29 26 56 63 78 110 18 40 55 99
82 132 27 33 56 71 64 83 15 23 16 23 54 7 26 -11 53 -15 80 -11 65 9 80 8 92
-9 6 -8 20 -14 30 -12 66 10 60 54 -22 153 -36 43 -70 89 -75 102 -5 12 -14
22 -20 22 -6 0 -19 10 -28 22 -12 14 -24 19 -36 15 -13 -6 -15 -10 -6 -21 9
-11 7 -15 -11 -20 -13 -3 -34 -6 -47 -6 -13 0 -64 -16 -113 -36 -49 -20 -106
-36 -126 -37 l-37 -2 0 45 c0 44 1 45 28 42 32 -4 56 19 57 54 0 14 6 21 17
20 10 0 19 8 21 18 2 11 25 40 49 64 35 33 48 41 54 30 5 -8 4 -14 -5 -16 -10
-2 -17 -27 -23 -75 l-8 -72 44 -8 c24 -4 46 -6 48 -3 3 2 6 47 8 100 2 78 0
97 -14 109 -26 24 -54 25 -90 6z m93 -34 c-4 -8 -12 -15 -20 -15 -17 0 -18 17
-1 23 22 9 27 7 21 -8z m-364 -285 l0 -30 -35 18 c-30 15 -32 18 -18 30 31 22
53 15 53 -18z m78 -72 c-13 -9 -35 -22 -49 -27 -23 -8 -25 -7 -21 18 3 25 8
27 49 27 l45 0 -24 -18z m405 -50 c25 -10 37 -27 20 -29 -5 0 -19 -2 -33 -3
-26 -3 -85 17 -94 33 -14 22 51 21 107 -1z m-828 -318 c54 -23 244 -70 281
-70 12 0 0 -31 -37 -96 -34 -59 -44 -70 -55 -60 -6 7 -23 12 -36 10 -12 -1
-29 -3 -35 -3 -22 -2 -14 -17 23 -43 l35 -25 -69 -52 c-56 -41 -77 -51 -109
-51 -37 0 -39 1 -36 28 2 15 0 45 -4 67 -7 33 -14 42 -41 50 -37 13 -111 66
-112 80 0 6 16 21 35 34 50 34 95 88 102 121 5 29 10 30 58 10z m-303 -155 c1
-26 22 -45 65 -60 116 -41 162 -76 149 -111 -3 -8 -1 -25 4 -39 l10 -25 -85 0
c-47 0 -85 4 -85 8 0 5 7 23 16 41 15 29 14 34 -1 57 -9 14 -23 28 -31 31 -17
6 -74 86 -74 103 0 14 31 9 32 -5z m668 -96 c0 -16 -6 -29 -12 -30 -55 -5
-100 -4 -109 2 -7 4 10 29 42 62 l53 56 13 -31 c7 -16 13 -43 13 -59z m-792
-251 c11 -9 11 -14 -1 -25 -10 -11 -20 -11 -41 -4 -22 9 -28 8 -33 -6 -4 -9
-2 -18 5 -21 6 -2 26 -13 44 -25 61 -41 42 -117 -29 -119 -31 -1 -73 17 -73
31 0 16 28 33 35 21 3 -5 17 -10 31 -10 32 0 29 29 -4 46 -37 18 -62 46 -62
69 0 24 18 50 40 58 21 7 71 -2 88 -15z m167 13 c6 -1 11 -10 12 -21 1 -15 -4
-20 -23 -20 -24 0 -24 -2 -24 -85 0 -84 0 -85 -25 -85 -25 0 -25 1 -25 85 0
84 0 85 -25 85 -18 0 -25 5 -25 19 0 11 8 21 17 23 14 3 84 2 118 -1z m205
-202 c0 -15 -40 -10 -46 6 -4 10 -20 15 -50 15 -30 0 -46 -5 -50 -15 -6 -15
-54 -22 -54 -7 0 4 23 54 51 112 l50 105 50 -104 c27 -57 49 -107 49 -112z
m52 181 c5 -17 15 -29 22 -27 6 3 28 -12 49 -31 l37 -36 0 55 c0 63 3 69 30
62 18 -5 20 -14 18 -104 0 -55 -5 -102 -9 -105 -5 -2 -36 23 -69 56 l-60 62 0
-62 c0 -58 -1 -61 -22 -58 -22 3 -23 8 -25 88 -3 124 7 160 29 100z m316 21
c28 -2 72 -62 72 -97 0 -77 -49 -118 -135 -112 l-50 3 0 100 c0 118 -7 113
113 106z m207 -70 c0 -59 4 -75 19 -87 13 -9 24 -10 37 -3 20 10 22 20 21 105
-1 47 2 52 24 57 24 4 24 4 24 -77 0 -93 -13 -121 -63 -134 -38 -11 -80 7 -98
39 -11 21 -14 152 -4 169 3 4 13 7 23 6 14 -3 17 -14 17 -75z m298 50 c41 -40
13 -107 -47 -113 -27 -3 -31 -7 -32 -33 -1 -16 -2 -33 -3 -37 -1 -5 -11 -8
-23 -8 -22 0 -23 3 -21 92 0 51 1 100 2 109 1 23 99 16 124 -10z m-1294 -330
l29 -54 31 61 c17 34 35 62 40 62 5 0 14 -33 20 -72 6 -40 13 -85 16 -100 4
-23 2 -28 -15 -28 -19 0 -29 19 -33 67 -2 29 -9 23 -33 -26 -10 -23 -23 -41
-27 -41 -4 0 -17 21 -28 46 -12 25 -22 44 -25 42 -4 -5 -12 -46 -13 -70 -1
-25 -41 -24 -41 0 0 18 15 114 26 161 6 29 14 22 53 -48z m212 59 c0 -5 1 -49
2 -97 1 -84 0 -88 -21 -89 -21 -1 -22 2 -22 97 0 92 1 99 20 99 11 0 20 -4 21
-10z m189 -5 c19 -23 2 -36 -36 -29 -26 5 -40 2 -54 -11 -47 -43 -1 -116 59
-94 23 9 40 -1 41 -24 0 -14 -54 -28 -86 -23 -85 17 -107 128 -35 183 22 17
96 16 111 -2z m90 -24 c0 -39 0 -39 40 -38 36 1 40 4 41 26 1 15 1 32 0 39 -2
9 6 12 21 10 22 -3 23 -6 23 -98 0 -88 -1 -95 -20 -95 -16 0 -20 7 -22 33 -2
40 -3 42 -34 44 -45 2 -49 -1 -49 -37 0 -33 -21 -57 -36 -42 -5 4 -9 162 -5
190 1 4 10 7 21 7 17 0 20 -7 20 -39z m220 -60 c0 -96 -1 -98 -22 -97 -22 1
-23 5 -23 91 -1 103 -1 105 26 105 17 0 19 -8 19 -99z m181 89 c15 -9 17 -14
7 -29 -9 -15 -15 -17 -28 -9 -28 18 -67 2 -79 -33 -9 -27 -8 -33 13 -54 17
-17 31 -22 46 -18 19 5 20 8 9 17 -26 20 -16 39 19 41 l33 2 -3 -46 c-3 -41
-6 -46 -35 -54 -103 -30 -179 89 -104 164 31 31 83 39 122 19z m188 -95 c34
-77 38 -91 24 -94 -9 -2 -22 4 -28 13 -19 25 -77 27 -96 3 -10 -12 -23 -18
-32 -14 -14 5 -11 17 19 83 48 107 55 117 64 108 4 -5 26 -49 49 -99z m111 73
c19 -18 46 -42 59 -53 l23 -20 -2 35 c-4 61 -1 70 20 70 19 0 20 -7 20 -100 0
-55 -3 -100 -6 -100 -3 0 -30 25 -59 55 -30 30 -56 55 -58 55 -2 0 -3 -24 -2
-52 0 -47 -3 -53 -21 -56 -21 -3 -22 1 -23 97 -1 56 2 101 6 101 5 0 24 -15
43 -32z m-1090 -356 c0 -13 2 -13 14 4 14 18 15 18 22 0 7 -17 8 -17 20 5 12
22 13 22 13 4 0 -11 -6 -33 -13 -50 l-13 -30 -7 30 -8 30 -13 -25 -13 -25 -11
28 c-14 35 -14 60 -1 52 6 -3 10 -14 10 -23z m156 15 c4 -4 -3 -7 -15 -7 -12
0 -19 -4 -16 -10 4 -6 11 -8 16 -5 5 4 9 1 9 -4 0 -6 -7 -11 -15 -11 -8 0 -15
-4 -15 -10 0 -5 3 -9 8 -9 19 3 33 -2 28 -10 -15 -23 -52 0 -51 31 2 41 28 59
51 35z m114 3 c10 -6 11 -10 3 -10 -8 0 -13 -14 -13 -36 0 -21 -4 -33 -10 -29
-6 3 -8 17 -6 30 3 14 0 27 -5 31 -10 6 -3 24 9 24 4 0 14 -5 22 -10z m60 -14
c0 -7 7 -13 15 -13 8 0 15 9 15 19 0 11 5 16 10 13 6 -3 10 -21 10 -40 0 -19
-4 -37 -10 -40 -5 -3 -10 3 -10 14 0 12 -7 21 -15 21 -8 0 -15 -7 -15 -15 0
-8 -4 -15 -10 -15 -5 0 -10 18 -10 41 0 24 4 38 10 34 6 -3 10 -12 10 -19z
m135 13 c4 -5 -3 -9 -15 -9 -12 0 -18 -5 -15 -10 4 -6 11 -8 16 -5 5 4 9 1 9
-4 0 -6 -4 -11 -10 -11 -5 0 -10 -4 -10 -10 0 -5 7 -10 15 -10 8 0 15 -4 15
-8 0 -4 -11 -8 -25 -8 -23 0 -25 4 -25 41 0 33 4 41 20 42 11 1 22 -2 25 -8z
m128 2 c16 -2 6 -40 -13 -46 -11 -3 -20 -14 -20 -23 0 -13 -2 -14 -8 -4 -5 7
-7 23 -6 35 1 12 3 27 3 34 1 6 9 10 19 8 9 -2 20 -4 25 -4z m93 -4 c4 -4 -4
-7 -17 -7 -23 -1 -23 -1 -5 -15 17 -13 18 -15 3 -15 -9 0 -17 -4 -17 -10 0 -5
7 -10 15 -10 8 0 15 -4 15 -10 0 -5 -10 -8 -22 -6 -19 2 -23 10 -25 43 -2 36
1 40 22 39 13 -1 27 -5 31 -9z m97 -5 c24 -26 1 -68 -33 -64 -29 5 -26 2 -34
28 -4 14 -1 28 9 38 21 21 38 20 58 -2z m90 9 c13 -2 7 -41 -6 -41 -8 0 -19
-10 -25 -22 -9 -20 -11 -17 -11 24 -1 39 2 46 17 43 9 -2 20 -4 25 -4z m57
-32 c0 -19 5 -29 15 -29 8 0 15 -4 15 -9 0 -16 -40 -8 -44 9 -8 33 -5 71 4 65
6 -3 10 -19 10 -36z m110 29 c0 -4 -7 -8 -15 -8 -8 0 -15 -5 -15 -11 0 -5 4
-8 9 -4 5 3 12 1 16 -5 3 -5 -1 -10 -9 -10 -9 0 -16 -4 -16 -10 0 -5 7 -10 15
-10 8 0 15 -4 15 -10 0 -5 -10 -8 -22 -6 -23 3 -36 41 -24 71 5 14 46 17 46 3z
m143 -22 c9 5 9 4 0 -6 -6 -7 -9 -20 -6 -29 5 -13 3 -14 -7 -4 -8 8 -18 9 -24
4 -7 -6 -11 -1 -12 15 -1 13 2 21 7 18 5 -3 9 3 9 13 1 17 1 17 11 0 6 -9 16
-14 22 -11z m-1300 8 c20 -7 10 -40 -13 -41 -20 -2 -35 33 -16 41 6 2 12 5 13
5 1 1 8 -2 16 -5z"/>
<path d="M782 783 c-16 -29 -15 -33 8 -33 22 0 23 4 11 35 -8 19 -8 19 -19 -2z"/>
<path d="M1194 788 c1 -59 3 -63 25 -64 52 -3 82 74 43 109 -10 10 -30 17 -44
17 -24 0 -25 -2 -24 -62z"/>
<path d="M1684 825 c1 -18 7 -25 22 -25 22 0 39 24 28 41 -3 5 -16 9 -29 9
-18 0 -23 -5 -21 -25z"/>
<path d="M1480 501 c-10 -19 -8 -21 16 -21 24 0 25 2 13 18 -7 9 -14 19 -15
20 -1 2 -7 -6 -14 -17z"/>
<path d="M1130 220 c0 -5 4 -10 9 -10 6 0 13 5 16 10 3 6 -1 10 -9 10 -9 0
-16 -4 -16 -10z"/>
<path d="M1303 214 c-7 -20 17 -37 34 -23 15 13 6 39 -13 39 -8 0 -17 -7 -21
-16z"/>
<path d="M1415 220 c3 -5 8 -10 11 -10 2 0 4 5 4 10 0 6 -5 10 -11 10 -5 0 -7
-4 -4 -10z"/>
</g>
</svg>
